<svg xmlns="http://www.w3.org/2000/svg" viewBox="0 0 100 100" fill="none">
  <defs>
    <linearGradient id="logoGradient" x1="0%" y1="0%" x2="100%" y2="100%">
      <stop offset="0%" style="stop-color:#3b82f6"/>
      <stop offset="50%" style="stop-color:#06b6d4"/>
      <stop offset="100%" style="stop-color:#3b82f6"/>
    </linearGradient>
    <linearGradient id="bgGradient" x1="0%" y1="0%" x2="100%" y2="100%">
      <stop offset="0%" style="stop-color:#1e293b"/>
      <stop offset="100%" style="stop-color:#0f172a"/>
    </linearGradient>
  </defs>

  <!-- Background circle -->
  <circle cx="50" cy="50" r="48" fill="url(#bgGradient)" stroke="url(#logoGradient)" stroke-width="2"/>

  <!-- P letter -->
  <path d="M25 28h18c8 0 14 6 14 14s-6 14-14 14H35v16h-10V28z M35 36v12h8c4 0 6-2.5 6-6s-2-6-6-6h-8z" fill="url(#logoGradient)"/>

  <!-- M letter -->
  <path d="M52 28h10l8 20 8-20h10v44h-9V48l-7 18h-4l-7-18v24h-9V28z" fill="url(#logoGradient)"/>
</svg>
